<svg width="513" height="340" viewBox="0 0 513 340" fill="none" xmlns="http://www.w3.org/2000/svg">
<path d="M27 113.076C113.843 -31.5622 389.322 -25.6048 478 123.076" stroke="url(#paint0_linear_29_53)" stroke-width="15" stroke-linecap="round"/>
<path d="M33.473 224.591C33.473 244.4 36.874 254.305 43.676 254.305C48.688 254.305 55.1917 252.634 63.187 249.293C64.977 249.89 65.872 251.56 65.872 254.305C57.1607 258.959 47.1367 263.076 35.8 266.656C30.1913 266.656 25.8953 263.792 22.912 258.064C20.048 252.336 18.616 244.639 18.616 234.973V193.445C18.616 186.404 18.1983 182.884 17.363 182.884L4.117 183.063C3.28167 182.824 2.864 182.228 2.864 181.273C3.46067 180.08 3.99767 177.932 4.475 174.829H17.184C18.1387 174.829 18.616 172.741 18.616 168.564L18.437 153.349C22.8523 151.559 27.387 147.86 32.041 142.251C33.473 142.251 34.547 142.609 35.263 143.325C34.189 155.855 33.652 166.356 33.652 174.829C42.3633 174.829 50.9553 174.411 59.428 173.576C60.2633 174.053 60.681 174.769 60.681 175.724C59.965 176.917 59.3683 179.125 58.891 182.347L33.473 182.705V224.591ZM135.208 197.92L134.671 241.596C134.671 250.307 137.475 254.663 143.084 254.663L149.528 254.484C150.005 255.081 150.244 256.035 150.244 257.348L149.886 259.317C140.697 260.988 134.134 263.434 130.196 266.656C127.571 265.94 125.303 264.329 123.394 261.823C121.604 259.198 120.59 256.453 120.351 253.589C110.804 259.436 101.317 263.792 91.8899 266.656C87.8326 266.656 83.6559 264.389 79.3599 259.854C75.0639 255.2 72.9159 249.412 72.9159 242.491C72.9159 239.03 73.6916 235.928 75.2429 233.183C76.7943 230.319 78.6439 228.35 80.7919 227.276C89.6226 222.861 102.749 218.982 120.172 215.641V198.636C120.172 192.073 119.098 187.18 116.95 183.958C114.921 180.736 112.415 179.125 109.432 179.125C106.568 179.125 103.465 179.662 100.124 180.736C96.7826 181.691 94.3959 183.6 92.9639 186.464C91.6513 189.328 90.9949 193.385 90.9949 198.636C90.9949 199.113 90.1596 199.65 88.4889 200.247C86.9376 200.724 84.9089 200.963 82.4029 200.963C80.0163 200.963 78.3456 200.426 77.3909 199.352C76.5556 198.159 76.1379 196.428 76.1379 194.161C76.1379 189.865 79.2406 185.211 85.4459 180.199C86.8779 179.244 91.0546 177.633 97.9759 175.366C105.017 173.099 109.074 171.965 110.148 171.965C118.74 171.965 125.065 174.471 129.122 179.483C133.179 184.495 135.208 190.641 135.208 197.92ZM88.8469 241.596C88.8469 244.46 89.9806 247.563 92.2479 250.904C94.5153 254.245 97.0809 255.916 99.9449 255.916C102.928 255.916 106.329 254.902 110.148 252.873C113.967 250.844 117.129 248.696 119.635 246.429C119.993 239.388 120.172 231.274 120.172 222.085C110.148 223.398 101.317 226.262 93.6799 230.677C90.4579 232.228 88.8469 235.868 88.8469 241.596ZM186.252 224.591C186.252 244.4 189.653 254.305 196.455 254.305C201.467 254.305 207.971 252.634 215.966 249.293C217.756 249.89 218.651 251.56 218.651 254.305C209.94 258.959 199.916 263.076 188.579 266.656C182.971 266.656 178.675 263.792 175.691 258.064C172.827 252.336 171.395 244.639 171.395 234.973V193.445C171.395 186.404 170.978 182.884 170.142 182.884L156.896 183.063C156.061 182.824 155.643 182.228 155.643 181.273C156.24 180.08 156.777 177.932 157.254 174.829H169.963C170.918 174.829 171.395 172.741 171.395 168.564L171.216 153.349C175.632 151.559 180.166 147.86 184.82 142.251C186.252 142.251 187.326 142.609 188.042 143.325C186.968 155.855 186.431 166.356 186.431 174.829C195.143 174.829 203.735 174.411 212.207 173.576C213.043 174.053 213.46 174.769 213.46 175.724C212.744 176.917 212.148 179.125 211.67 182.347L186.252 182.705V224.591ZM250.755 224.591C250.755 244.4 254.156 254.305 260.958 254.305C265.97 254.305 272.474 252.634 280.469 249.293C282.259 249.89 283.154 251.56 283.154 254.305C274.443 258.959 264.419 263.076 253.082 266.656C247.474 266.656 243.178 263.792 240.194 258.064C237.33 252.336 235.898 244.639 235.898 234.973V193.445C235.898 186.404 235.481 182.884 234.645 182.884L221.399 183.063C220.564 182.824 220.146 182.228 220.146 181.273C220.743 180.08 221.28 177.932 221.757 174.829H234.466C235.421 174.829 235.898 172.741 235.898 168.564L235.719 153.349C240.135 151.559 244.669 147.86 249.323 142.251C250.755 142.251 251.829 142.609 252.545 143.325C251.471 155.855 250.934 166.356 250.934 174.829C259.646 174.829 268.238 174.411 276.71 173.576C277.546 174.053 277.963 174.769 277.963 175.724C277.247 176.917 276.651 179.125 276.173 182.347L250.755 182.705V224.591ZM329.936 263.613L313.826 263.076C305.473 263.076 297.597 263.553 290.198 264.508C289.482 263.553 289.124 262.539 289.124 261.465L289.482 260.033C294.613 258.84 298.074 256.99 299.864 254.484C301.177 252.575 302.191 250.307 302.907 247.682C303.623 244.937 303.981 237.181 303.981 224.412V207.228C303.981 199.829 303.623 194.698 302.907 191.834C302.31 188.97 301.356 187.061 300.043 186.106C298.73 185.151 297 184.555 294.852 184.316L288.229 183.779C287.871 183.302 287.692 182.526 287.692 181.452L288.229 179.125C294.434 177.812 299.446 176.5 303.265 175.187C307.203 173.755 311.797 171.726 317.048 169.101C318.361 169.101 319.256 169.817 319.733 171.249C318.301 179.364 317.585 198.696 317.585 229.245C317.585 234.734 317.764 240.82 318.122 247.503C318.599 254.066 319.196 257.408 319.912 257.527C321.702 257.885 325.043 258.064 329.936 258.064C330.294 258.899 330.473 259.854 330.473 260.928C330.473 262.002 330.294 262.897 329.936 263.613ZM313.11 148.695C308.814 145.712 305.771 141.774 303.981 136.881C305.413 135.21 307.322 133.48 309.709 131.69C312.215 129.781 314.363 128.468 316.153 127.752C320.688 131.093 323.611 135.091 324.924 139.745C321.583 144.041 317.645 147.024 313.11 148.695ZM390.149 171.965C401.724 171.965 411.271 175.426 418.789 182.347C418.431 184.376 417.178 186.524 415.03 188.791C413.001 191.058 410.674 192.49 408.049 193.087C404.23 188.552 400.411 185.092 396.593 182.705C392.774 180.318 388.06 179.125 382.452 179.125C376.962 179.125 371.95 182.765 367.416 190.044C362.881 197.204 360.614 204.662 360.614 212.419C360.614 220.056 361.568 226.918 363.478 233.004C365.506 239.09 368.907 244.221 373.681 248.398C378.454 252.575 384.242 254.663 391.044 254.663C397.965 254.663 406.736 252.396 417.357 247.861C418.431 248.458 418.968 249.651 418.968 251.441L401.605 263.255C400.411 263.971 398.204 264.687 394.982 265.403C391.76 266.238 389.134 266.656 387.106 266.656C373.621 266.656 363.358 262.241 356.318 253.41C349.277 244.579 345.757 233.481 345.757 220.116C345.757 212.24 347.189 205.259 350.053 199.173C352.917 192.968 356.258 188.254 360.077 185.032C363.895 181.691 368.072 178.946 372.607 176.798C379.886 173.576 385.733 171.965 390.149 171.965ZM494.432 197.92L493.895 241.596C493.895 250.307 496.699 254.663 502.308 254.663L508.752 254.484C509.229 255.081 509.468 256.035 509.468 257.348L509.11 259.317C499.921 260.988 493.358 263.434 489.42 266.656C486.794 265.94 484.527 264.329 482.618 261.823C480.828 259.198 479.813 256.453 479.575 253.589C470.028 259.436 460.541 263.792 451.114 266.656C447.056 266.656 442.88 264.389 438.584 259.854C434.288 255.2 432.14 249.412 432.14 242.491C432.14 239.03 432.915 235.928 434.467 233.183C436.018 230.319 437.868 228.35 440.016 227.276C448.846 222.861 461.973 218.982 479.396 215.641V198.636C479.396 192.073 478.322 187.18 476.174 183.958C474.145 180.736 471.639 179.125 468.656 179.125C465.792 179.125 462.689 179.662 459.348 180.736C456.006 181.691 453.62 183.6 452.188 186.464C450.875 189.328 450.219 193.385 450.219 198.636C450.219 199.113 449.383 199.65 447.713 200.247C446.161 200.724 444.133 200.963 441.627 200.963C439.24 200.963 437.569 200.426 436.615 199.352C435.779 198.159 435.362 196.428 435.362 194.161C435.362 189.865 438.464 185.211 444.67 180.199C446.102 179.244 450.278 177.633 457.2 175.366C464.24 173.099 468.298 171.965 469.372 171.965C477.964 171.965 484.288 174.471 488.346 179.483C492.403 184.495 494.432 190.641 494.432 197.92ZM448.071 241.596C448.071 244.46 449.204 247.563 451.472 250.904C453.739 254.245 456.305 255.916 459.169 255.916C462.152 255.916 465.553 254.902 469.372 252.873C473.19 250.844 476.353 248.696 478.859 246.429C479.217 239.388 479.396 231.274 479.396 222.085C469.372 223.398 460.541 226.262 452.904 230.677C449.682 232.228 448.071 235.868 448.071 241.596Z" fill="black"/>
<defs>
<linearGradient id="paint0_linear_29_53" x1="264.289" y1="-19.8835" x2="108.852" y2="196.383" gradientUnits="userSpaceOnUse">
<stop offset="0.469783"/>
<stop offset="0.938838" stop-opacity="0"/>
</linearGradient>
</defs>
</svg>
