<svg width="1920" height="1080" viewBox="0 0 1920 1080" fill="none" xmlns="http://www.w3.org/2000/svg">
<rect width="1920" height="1080" fill="url(#paint0_radial_30_2)" fill-opacity="0.96"/>
<path d="M462.414 413.651C651.001 158.1 1249.23 168.626 1441.8 431.319" stroke="url(#paint1_linear_30_2)" stroke-width="15" stroke-linecap="round"/>
<path d="M476.47 610.679C476.47 645.678 483.856 663.178 498.627 663.178C509.511 663.178 523.634 660.226 540.997 654.323C544.884 655.377 546.828 658.329 546.828 663.178C527.91 671.401 506.142 678.675 481.524 685C469.344 685 460.015 679.94 453.536 669.819C447.317 659.699 444.207 646.1 444.207 629.022V555.649C444.207 543.209 443.3 536.99 441.486 536.99L412.721 537.306C410.907 536.884 410 535.83 410 534.143C411.296 532.035 412.462 528.24 413.498 522.758H441.097C443.17 522.758 444.207 519.068 444.207 511.689L443.818 484.806C453.406 481.644 463.254 475.108 473.361 465.198C476.47 465.198 478.803 465.831 480.357 467.096C478.025 489.234 476.859 507.788 476.859 522.758C495.776 522.758 514.435 522.02 532.834 520.544C534.648 521.387 535.555 522.652 535.555 524.339C534 526.448 532.704 530.348 531.668 536.041L476.47 536.673V610.679Z" fill="white"/>
<path d="M697.397 563.556L696.231 640.723C696.231 656.115 702.321 663.811 714.5 663.811L728.494 663.494C729.531 664.548 730.049 666.235 730.049 668.554L729.272 672.033C709.318 674.985 695.065 679.307 686.513 685C680.812 683.735 675.888 680.889 671.742 676.461C667.855 671.822 665.652 666.973 665.134 661.913C644.402 672.244 623.8 679.94 603.328 685C594.517 685 585.447 680.994 576.118 672.982C566.789 664.759 562.124 654.533 562.124 642.305C562.124 636.19 563.809 630.708 567.177 625.859C570.546 620.799 574.563 617.32 579.228 615.422C598.404 607.621 626.91 600.769 664.745 594.865V564.821C664.745 553.224 662.413 544.58 657.748 538.887C653.343 533.194 647.901 530.348 641.422 530.348C635.203 530.348 628.465 531.297 621.209 533.194C613.953 534.881 608.77 538.255 605.66 543.315C602.81 548.375 601.384 555.544 601.384 564.821C601.384 565.664 599.57 566.613 595.942 567.667C592.573 568.51 588.168 568.932 582.726 568.932C577.543 568.932 573.915 567.983 571.842 566.086C570.028 563.977 569.121 560.92 569.121 556.914C569.121 549.324 575.859 541.101 589.334 532.246C592.444 530.559 601.514 527.713 616.544 523.707C631.834 519.701 640.645 517.698 642.977 517.698C661.635 517.698 675.37 522.125 684.181 530.981C692.991 539.836 697.397 550.694 697.397 563.556ZM596.72 640.723C596.72 645.784 599.182 651.265 604.105 657.169C609.029 663.073 614.601 666.024 620.82 666.024C627.299 666.024 634.684 664.232 642.977 660.648C651.269 657.064 658.137 653.268 663.579 649.262C664.356 636.823 664.745 622.486 664.745 606.251C642.977 608.57 623.8 613.63 607.215 621.431C600.218 624.172 596.72 630.603 596.72 640.723Z" fill="white"/>
<path d="M808.244 610.679C808.244 645.678 815.63 663.178 830.401 663.178C841.285 663.178 855.408 660.226 872.771 654.323C876.658 655.377 878.602 658.329 878.602 663.178C859.684 671.401 837.916 678.675 813.298 685C801.118 685 791.789 679.94 785.31 669.819C779.091 659.699 775.981 646.1 775.981 629.022V555.649C775.981 543.209 775.074 536.99 773.26 536.99L744.495 537.306C742.681 536.884 741.774 535.83 741.774 534.143C743.07 532.035 744.236 528.24 745.273 522.758H772.871C774.944 522.758 775.981 519.068 775.981 511.689L775.592 484.806C785.181 481.644 795.028 475.108 805.135 465.198C808.244 465.198 810.577 465.831 812.132 467.096C809.799 489.234 808.633 507.788 808.633 522.758C827.551 522.758 846.209 522.02 864.608 520.544C866.422 521.387 867.329 522.652 867.329 524.339C865.774 526.448 864.478 530.348 863.442 536.041L808.244 536.673V610.679Z" fill="white"/>
<path d="M948.318 610.679C948.318 645.678 955.704 663.178 970.475 663.178C981.359 663.178 995.482 660.226 1012.85 654.323C1016.73 655.377 1018.68 658.329 1018.68 663.178C999.758 671.401 977.99 678.675 953.372 685C941.192 685 931.863 679.94 925.384 669.819C919.165 659.699 916.055 646.1 916.055 629.022V555.649C916.055 543.209 915.148 536.99 913.334 536.99L884.569 537.306C882.755 536.884 881.848 535.83 881.848 534.143C883.144 532.035 884.31 528.24 885.347 522.758H912.945C915.018 522.758 916.055 519.068 916.055 511.689L915.666 484.806C925.255 481.644 935.102 475.108 945.209 465.198C948.318 465.198 950.651 465.831 952.206 467.096C949.873 489.234 948.707 507.788 948.707 522.758C967.625 522.758 986.283 522.02 1004.68 520.544C1006.5 521.387 1007.4 522.652 1007.4 524.339C1005.85 526.448 1004.55 530.348 1003.52 536.041L948.318 536.673V610.679Z" fill="white"/>
<path d="M1120.27 679.624L1085.28 678.675C1067.14 678.675 1050.04 679.518 1033.97 681.205C1032.42 679.518 1031.64 677.726 1031.64 675.828L1032.42 673.298C1043.56 671.19 1051.08 667.922 1054.96 663.494C1057.81 660.121 1060.02 656.115 1061.57 651.476C1063.13 646.627 1063.9 632.922 1063.9 610.362V580.001C1063.9 566.929 1063.13 557.863 1061.57 552.803C1060.28 547.742 1058.2 544.369 1055.35 542.682C1052.5 540.996 1048.74 539.941 1044.08 539.52L1029.7 538.571C1028.92 537.728 1028.53 536.357 1028.53 534.459L1029.7 530.348C1043.17 528.029 1054.06 525.71 1062.35 523.39C1070.9 520.86 1080.88 517.276 1092.28 512.637C1095.13 512.637 1097.07 513.902 1098.11 516.433C1095 530.77 1093.45 564.926 1093.45 618.901C1093.45 628.6 1093.83 639.353 1094.61 651.16C1095.65 662.756 1096.94 668.66 1098.5 668.871C1102.39 669.503 1109.64 669.819 1120.27 669.819C1121.04 671.295 1121.43 672.982 1121.43 674.88C1121.43 676.777 1121.04 678.359 1120.27 679.624ZM1083.73 476.584C1074.4 471.313 1067.79 464.355 1063.9 455.71C1067.01 452.759 1071.16 449.701 1076.34 446.539C1081.78 443.165 1086.45 440.846 1090.34 439.581C1100.18 445.485 1106.53 452.548 1109.38 460.771C1102.13 468.361 1093.58 473.632 1083.73 476.584Z" fill="white"/>
<path d="M1251.02 517.698C1276.16 517.698 1296.89 523.812 1313.22 536.041C1312.44 539.625 1309.72 543.42 1305.06 547.426C1300.65 551.432 1295.6 553.962 1289.9 555.016C1281.6 547.005 1273.31 540.89 1265.02 536.673C1256.73 532.456 1246.49 530.348 1234.31 530.348C1222.39 530.348 1211.5 536.779 1201.66 549.64C1191.81 562.29 1186.89 575.468 1186.89 589.173C1186.89 602.667 1188.96 614.79 1193.11 625.543C1197.51 636.296 1204.9 645.362 1215.26 652.741C1225.63 660.121 1238.2 663.811 1252.97 663.811C1268 663.811 1287.04 659.805 1310.11 651.793C1312.44 652.847 1313.61 654.955 1313.61 658.118L1275.9 678.991C1273.31 680.256 1268.52 681.521 1261.52 682.786C1254.52 684.262 1248.82 685 1244.42 685C1215.13 685 1192.85 677.199 1177.56 661.597C1162.27 645.994 1154.62 626.386 1154.62 602.772C1154.62 588.856 1157.73 576.522 1163.95 565.769C1170.17 554.806 1177.43 546.477 1185.72 540.785C1194.01 534.881 1203.08 530.032 1212.93 526.237C1228.74 520.544 1241.44 517.698 1251.02 517.698Z" fill="white"/>
<path d="M1477.48 563.556L1476.32 640.723C1476.32 656.115 1482.41 663.811 1494.59 663.811L1508.58 663.494C1509.62 664.548 1510.14 666.235 1510.14 668.554L1509.36 672.033C1489.4 674.985 1475.15 679.307 1466.6 685C1460.9 683.735 1455.97 680.889 1451.83 676.461C1447.94 671.822 1445.74 666.973 1445.22 661.913C1424.49 672.244 1403.89 679.94 1383.41 685C1374.6 685 1365.53 680.994 1356.2 672.982C1346.88 664.759 1342.21 654.533 1342.21 642.305C1342.21 636.19 1343.9 630.708 1347.26 625.859C1350.63 620.799 1354.65 617.32 1359.31 615.422C1378.49 607.621 1407 600.769 1444.83 594.865V564.821C1444.83 553.224 1442.5 544.58 1437.83 538.887C1433.43 533.194 1427.99 530.348 1421.51 530.348C1415.29 530.348 1408.55 531.297 1401.3 533.194C1394.04 534.881 1388.86 538.255 1385.75 543.315C1382.9 548.375 1381.47 555.544 1381.47 564.821C1381.47 565.664 1379.66 566.613 1376.03 567.667C1372.66 568.51 1368.25 568.932 1362.81 568.932C1357.63 568.932 1354 567.983 1351.93 566.086C1350.11 563.977 1349.21 560.92 1349.21 556.914C1349.21 549.324 1355.95 541.101 1369.42 532.246C1372.53 530.559 1381.6 527.713 1396.63 523.707C1411.92 519.701 1420.73 517.698 1423.06 517.698C1441.72 517.698 1455.46 522.125 1464.27 530.981C1473.08 539.836 1477.48 550.694 1477.48 563.556ZM1376.81 640.723C1376.81 645.784 1379.27 651.265 1384.19 657.169C1389.12 663.073 1394.69 666.024 1400.91 666.024C1407.39 666.024 1414.77 664.232 1423.06 660.648C1431.36 657.064 1438.22 653.268 1443.67 649.262C1444.44 636.823 1444.83 622.486 1444.83 606.251C1423.06 608.57 1403.89 613.63 1387.3 621.431C1380.3 624.172 1376.81 630.603 1376.81 640.723Z" fill="white"/>
<defs>
<radialGradient id="paint0_radial_30_2" cx="0" cy="0" r="1" gradientUnits="userSpaceOnUse" gradientTransform="translate(921 68.5001) rotate(133.139) scale(1905.6 3387.73)">
<stop stop-color="#334FA0"/>
<stop offset="1" stop-color="#334FA0" stop-opacity="0.35"/>
</radialGradient>
<linearGradient id="paint1_linear_30_2" x1="977.709" y1="178.735" x2="725.193" y2="610.562" gradientUnits="userSpaceOnUse">
<stop offset="0.469783" stop-color="white"/>
<stop offset="0.938838" stop-color="white" stop-opacity="0"/>
</linearGradient>
</defs>
</svg>
